<!DOCTYPE svg PUBLIC "-//W3C//DTD SVG 20010904//EN" "http://www.w3.org/TR/2001/REC-SVG-20010904/DTD/svg10.dtd">
<svg version="1.0" xmlns="http://www.w3.org/2000/svg" width="45px" height="66px" viewBox="0 0 450 660" preserveAspectRatio="xMidYMid meet">
<g id="layer101" fill="#3584fd" stroke="none">
 <path d="M25 635 l-25 -24 0 -281 0 -281 25 -24 c24 -25 27 -25 200 -25 173 0 176 0 200 25 l25 24 0 281 0 281 -25 24 c-24 25 -27 25 -200 25 -173 0 -176 0 -200 -25z m367 -32 c30 -27 21 -33 -51 -33 -65 0 -69 1 -64 21 5 19 2 20 -43 17 -39 -2 -49 -6 -48 -20 2 -16 -8 -18 -72 -18 -41 0 -74 3 -74 7 0 3 7 15 17 25 14 16 33 18 166 18 126 0 153 -3 169 -17z m18 -278 l0 -205 -185 0 -185 0 0 205 0 205 185 0 185 0 0 -205z m-204 -265 c0 -18 -7 -20 -67 -20 -53 0 -69 4 -84 20 -18 20 -17 20 66 20 78 0 85 -2 85 -20z m189 0 c-14 -16 -31 -20 -79 -20 -55 0 -62 2 -62 20 0 18 7 20 80 20 78 0 79 0 61 -20z"/>
 <path d="M234 374 c-4 -22 -17 -43 -35 -56 -16 -12 -29 -28 -29 -35 0 -18 41 -16 67 2 24 17 48 87 39 111 -10 27 -35 15 -42 -22z"/>
 <path d="M306 359 c-10 -60 -31 -94 -71 -113 -44 -21 -47 -46 -4 -46 59 0 119 87 119 173 0 20 -5 27 -19 27 -14 0 -20 -10 -25 -41z"/>
 </g>

</svg>